<mxfile host="65bd71144e">
    <diagram id="s47VW47fDHnRmVfll6Nn" name="Page-1">
        <mxGraphModel dx="959" dy="583" grid="1" gridSize="10" guides="1" tooltips="1" connect="1" arrows="1" fold="1" page="1" pageScale="1" pageWidth="850" pageHeight="1100" math="0" shadow="0">
            <root>
                <mxCell id="0"/>
                <mxCell id="1" parent="0"/>
                <mxCell id="30" value="src/...." style="shape=note;whiteSpace=wrap;html=1;backgroundOutline=1;darkOpacity=0.05;fontSize=11;fontStyle=1;size=17;" parent="1" vertex="1">
                    <mxGeometry x="550" y="240" width="75" height="50" as="geometry"/>
                </mxCell>
                <mxCell id="7" style="edgeStyle=none;html=1;exitX=0;exitY=0;exitDx=160;exitDy=75;exitPerimeter=0;fontSize=11;entryX=-0.006;entryY=0.427;entryDx=0;entryDy=0;entryPerimeter=0;" parent="1" source="4" target="6" edge="1">
                    <mxGeometry relative="1" as="geometry">
                        <mxPoint x="300" y="275.1428571428571" as="targetPoint"/>
                    </mxGeometry>
                </mxCell>
                <mxCell id="28" value="rustc:&lt;br&gt;build" style="edgeLabel;html=1;align=center;verticalAlign=middle;resizable=0;points=[];fontSize=11;" parent="7" vertex="1" connectable="0">
                    <mxGeometry x="-0.2716" y="-1" relative="1" as="geometry">
                        <mxPoint x="5" as="offset"/>
                    </mxGeometry>
                </mxCell>
                <mxCell id="4" value="&lt;p&gt;&lt;b&gt;build.rs&lt;br&gt;&lt;/b&gt;&lt;/p&gt;&lt;br&gt;&lt;p style=&quot;text-align: left; font-size: 11px;&quot;&gt;&lt;i style=&quot;&quot;&gt;&lt;font style=&quot;font-size: 11px;&quot;&gt;&amp;nbsp;fn main() {&lt;br&gt;&lt;/font&gt;&lt;/i&gt;&lt;i&gt;&lt;font style=&quot;font-size: 11px;&quot;&gt;&amp;nbsp; &amp;nbsp; let _build =&amp;nbsp; &amp;nbsp; &amp;nbsp;&amp;nbsp;&lt;/font&gt;&lt;/i&gt;&lt;i style=&quot;background-color: initial; font-family: Helvetica; white-space: normal;&quot;&gt;cxx_build::bridge(&quot;src/file.rs&quot;);&lt;br&gt;&lt;/i&gt;&lt;i style=&quot;&quot;&gt;&lt;font style=&quot;font-size: 11px;&quot;&gt;&amp;nbsp;}&lt;/font&gt;&lt;/i&gt;&lt;/p&gt;" style="shape=note;html=1;backgroundOutline=1;darkOpacity=0.05;size=20;verticalAlign=top;whiteSpace=wrap;" parent="1" vertex="1">
                    <mxGeometry x="60" y="200" width="160" height="130" as="geometry"/>
                </mxCell>
                <mxCell id="11" style="edgeStyle=orthogonalEdgeStyle;html=1;exitX=0.5;exitY=1;exitDx=0;exitDy=0;fontSize=11;entryX=0;entryY=0.5;entryDx=0;entryDy=0;entryPerimeter=0;" parent="1" source="6" target="12" edge="1">
                    <mxGeometry relative="1" as="geometry">
                        <mxPoint x="349.95238095238096" y="400.0000000000001" as="targetPoint"/>
                    </mxGeometry>
                </mxCell>
                <mxCell id="15" value="generates" style="edgeLabel;html=1;align=center;verticalAlign=middle;resizable=0;points=[];fontSize=11;" parent="11" vertex="1" connectable="0">
                    <mxGeometry x="-0.4522" y="1" relative="1" as="geometry">
                        <mxPoint x="-1" y="-3" as="offset"/>
                    </mxGeometry>
                </mxCell>
                <mxCell id="6" value="build script executable" style="label;whiteSpace=wrap;html=1;align=center;verticalAlign=bottom;spacingLeft=0;spacingBottom=4;imageAlign=center;imageVerticalAlign=top;image=img/clipart/Gear_128x128.png;fontSize=11;" parent="1" vertex="1">
                    <mxGeometry x="290" y="240" width="120" height="80" as="geometry"/>
                </mxCell>
                <mxCell id="12" value="rust/cxx.h" style="shape=note;whiteSpace=wrap;html=1;backgroundOutline=1;darkOpacity=0.05;fontSize=11;fontStyle=1;size=17;" parent="1" vertex="1">
                    <mxGeometry x="385" y="380" width="75" height="50" as="geometry"/>
                </mxCell>
                <mxCell id="18" value="mylib/file.rs.h" style="shape=note;whiteSpace=wrap;html=1;backgroundOutline=1;darkOpacity=0.05;fontSize=11;fontStyle=1;size=17;" parent="1" vertex="1">
                    <mxGeometry x="385" y="435" width="75" height="50" as="geometry"/>
                </mxCell>
                <mxCell id="19" value="mylib/file.rs.cc&lt;br&gt;&lt;br&gt;&lt;span style=&quot;font-weight: 400;&quot;&gt;&lt;i&gt;extern &quot;C&quot; {&lt;br&gt;// C API declarations&lt;br&gt;...&lt;br&gt;}&lt;/i&gt;&lt;/span&gt;" style="shape=note;whiteSpace=wrap;html=1;backgroundOutline=1;darkOpacity=0.05;fontSize=11;fontStyle=1;size=17;align=left;" parent="1" vertex="1">
                    <mxGeometry x="385" y="500" width="105" height="90" as="geometry"/>
                </mxCell>
                <mxCell id="22" value="" style="endArrow=classic;html=1;fontSize=11;entryX=0;entryY=0.5;entryDx=0;entryDy=0;entryPerimeter=0;edgeStyle=orthogonalEdgeStyle;startArrow=none;" parent="1" source="26" target="18" edge="1">
                    <mxGeometry width="50" height="50" relative="1" as="geometry">
                        <mxPoint x="350" y="400" as="sourcePoint"/>
                        <mxPoint x="590" y="270" as="targetPoint"/>
                        <Array as="points">
                            <mxPoint x="350" y="465"/>
                        </Array>
                    </mxGeometry>
                </mxCell>
                <mxCell id="23" value="" style="endArrow=classic;html=1;fontSize=11;entryX=0;entryY=0.5;entryDx=0;entryDy=0;entryPerimeter=0;edgeStyle=orthogonalEdgeStyle;" parent="1" edge="1">
                    <mxGeometry width="50" height="50" relative="1" as="geometry">
                        <mxPoint x="350" y="460.0000000000001" as="sourcePoint"/>
                        <mxPoint x="385" y="525" as="targetPoint"/>
                        <Array as="points">
                            <mxPoint x="350" y="525"/>
                        </Array>
                    </mxGeometry>
                </mxCell>
                <mxCell id="24" value="&lt;b&gt;cargo&lt;/b&gt;" style="shape=flexArrow;endArrow=classic;html=1;fontSize=11;" parent="1" edge="1">
                    <mxGeometry width="50" height="50" relative="1" as="geometry">
                        <mxPoint x="60" y="160" as="sourcePoint"/>
                        <mxPoint x="610" y="160" as="targetPoint"/>
                    </mxGeometry>
                </mxCell>
                <mxCell id="25" value="1" style="ellipse;whiteSpace=wrap;html=1;aspect=fixed;fontSize=11;" parent="1" vertex="1">
                    <mxGeometry x="240" y="240" width="20" height="20" as="geometry"/>
                </mxCell>
                <mxCell id="34" style="edgeStyle=orthogonalEdgeStyle;html=1;exitX=0;exitY=1;exitDx=0;exitDy=0;exitPerimeter=0;fontSize=11;" parent="1" source="30" target="36" edge="1">
                    <mxGeometry relative="1" as="geometry">
                        <mxPoint x="550" y="410" as="targetPoint"/>
                    </mxGeometry>
                </mxCell>
                <mxCell id="35" value="&lt;b&gt;rustc&lt;/b&gt;: &lt;br&gt;build&amp;amp; link" style="edgeLabel;html=1;align=center;verticalAlign=middle;resizable=0;points=[];fontSize=11;" parent="34" vertex="1" connectable="0">
                    <mxGeometry x="-0.1573" y="-1" relative="1" as="geometry">
                        <mxPoint x="1" y="11" as="offset"/>
                    </mxGeometry>
                </mxCell>
                <mxCell id="29" value="src/lib.rs" style="shape=note;whiteSpace=wrap;html=1;backgroundOutline=1;darkOpacity=0.05;fontSize=11;fontStyle=1;size=17;" parent="1" vertex="1">
                    <mxGeometry x="550" y="200" width="75" height="50" as="geometry"/>
                </mxCell>
                <mxCell id="33" style="edgeStyle=orthogonalEdgeStyle;html=1;exitX=0;exitY=0;exitDx=160;exitDy=75;exitPerimeter=0;fontSize=11;entryX=0;entryY=0.5;entryDx=0;entryDy=0;" parent="1" target="26" edge="1">
                    <mxGeometry relative="1" as="geometry">
                        <mxPoint x="320" y="380" as="targetPoint"/>
                        <mxPoint x="220" y="415" as="sourcePoint"/>
                        <Array as="points">
                            <mxPoint x="250" y="415"/>
                            <mxPoint x="250" y="400"/>
                        </Array>
                    </mxGeometry>
                </mxCell>
                <mxCell id="56" value="... from" style="edgeLabel;html=1;align=center;verticalAlign=middle;resizable=0;points=[];" parent="33" vertex="1" connectable="0">
                    <mxGeometry x="0.1301" y="-1" relative="1" as="geometry">
                        <mxPoint as="offset"/>
                    </mxGeometry>
                </mxCell>
                <mxCell id="36" value="mylib.a" style="shape=process;whiteSpace=wrap;html=1;backgroundOutline=1;fontSize=11;" parent="1" vertex="1">
                    <mxGeometry x="490" y="387.5" width="120" height="35" as="geometry"/>
                </mxCell>
                <mxCell id="37" value="&lt;i&gt;&lt;br&gt;Cargo.toml&lt;br&gt;&lt;span style=&quot;background-color: initial;&quot;&gt;&lt;br&gt;&lt;div style=&quot;text-align: left;&quot;&gt;&lt;span style=&quot;background-color: initial; font-weight: normal;&quot;&gt;[lib]&lt;/span&gt;&lt;/div&gt;&lt;/span&gt;&lt;/i&gt;&lt;div style=&quot;text-align: left;&quot;&gt;&lt;span style=&quot;font-weight: normal;&quot;&gt;&lt;i&gt;crate-type = [...&quot;, &quot;staticlib&quot;]&lt;/i&gt;&lt;/span&gt;&lt;/div&gt;&lt;span style=&quot;color: rgba(0, 0, 0, 0); font-family: monospace; font-size: 0px; font-weight: 400; text-align: start;&quot;&gt;%3CmxGraphModel%3E%3Croot%3E%3CmxCell%20id%3D%220%22%2F%3E%3CmxCell%20id%3D%221%22%20parent%3D%220%22%2F%3E%3CmxCell%20id%3D%222%22%20value%3D%22src%2Flib.rs%22%20style%3D%22shape%3Dnote%3BwhiteSpace%3Dwrap%3Bhtml%3D1%3BbackgroundOutline%3D1%3BdarkOpacity%3D0.05%3BfontSize%3D11%3BfontStyle%3D1%3Bsize%3D17%3B%22%20vertex%3D%221%22%20parent%3D%221%22%3E%3CmxGeometry%20x%3D%22480%22%20y%3D%22190%22%20width%3D%2275%22%20height%3D%2250%22%20as%3D%22geometry%22%2F%3E%3C%2FmxCell%3E%3C%2Froot%3E%3C%2FmxGraphModel%3E&lt;/span&gt;&lt;span style=&quot;color: rgba(0, 0, 0, 0); font-family: monospace; font-size: 0px; font-weight: 400; text-align: start;&quot;&gt;%3CmxGraphModel%3E%3Croot%3E%3CmxCell%20id%3D%220%22%2F%3E%3CmxCell%20id%3D%221%22%20parent%3D%220%22%2F%3E%3CmxCell%20id%3D%222%22%20value%3D%22src%2Flib.rs%22%20style%3D%22shape%3Dnote%3BwhiteSpace%3Dwrap%3Bhtml%3D1%3BbackgroundOutline%3D1%3BdarkOpacity%3D0.05%3BfontSize%3D11%3BfontStyle%3D1%3Bsize%3D17%3B%22%20vertex%3D%221%22%20parent%3D%221%22%3E%3CmxGeometry%20x%3D%22480%22%20y%3D%22190%22%20width%3D%2275%22%20height%3D%2250%22%20as%3D%22geometry%22%2F%3E%3C%2FmxCell%3E%3C%2Froot%3E%3C%2FmxGraphModel%3E&lt;/span&gt;&lt;span style=&quot;text-align: start; font-weight: 400; font-size: 0px; font-family: monospace; color: rgba(0, 0, 0, 0);&quot;&gt;%3CmxGraphModel%3E%3Croot%3E%3CmxCell%20id%3D%220%22%2F%3E%3CmxCell%20id%3D%221%22%20parent%3D%220%22%2F%3E%3CmxCell%20id%3D%222%22%20value%3D%22src%2Flib.rs%22%20style%3D%22shape%3Dnote%3BwhiteSpace%3Dwrap%3Bhtml%3D1%3BbackgroundOutline%3D1%3BdarkOpacity%3D0.05%3BfontSize%3D11%3BfontStyle%3D1%3Bsize%3D17%3B%22%20vertex%3D%221%22%20parent%3D%221%22%3E%3CmxGeometry%20x%3D%22480%22%20y%3D%22190%22%20width%3D%2275%22%20height%3D%2250%22%20as%3D%22geometry%22%2F%3E%3C%2FmxCell%3E%3C%2Froot%3E%3C%2FmxGraphModel%3E&lt;br&gt;&lt;br&gt;&lt;/span&gt;" style="shape=note;whiteSpace=wrap;html=1;backgroundOutline=1;darkOpacity=0.05;fontSize=11;fontStyle=1;size=17;" parent="1" vertex="1">
                    <mxGeometry x="441" y="200" width="99" height="90" as="geometry"/>
                </mxCell>
                <mxCell id="38" value="3" style="ellipse;whiteSpace=wrap;html=1;aspect=fixed;fontSize=11;" parent="1" vertex="1">
                    <mxGeometry x="500" y="340" width="20" height="20" as="geometry"/>
                </mxCell>
                <mxCell id="39" value="" style="shape=curlyBracket;whiteSpace=wrap;html=1;rounded=1;flipH=1;labelPosition=right;verticalLabelPosition=middle;align=left;verticalAlign=middle;fontSize=11;" parent="1" vertex="1">
                    <mxGeometry x="625" y="370" width="20" height="230" as="geometry"/>
                </mxCell>
                <mxCell id="41" style="edgeStyle=orthogonalEdgeStyle;html=1;exitX=0.5;exitY=1;exitDx=0;exitDy=0;fontSize=11;entryX=0;entryY=0.5;entryDx=0;entryDy=0;" parent="1" source="40" target="42" edge="1">
                    <mxGeometry relative="1" as="geometry">
                        <mxPoint x="800" y="560" as="targetPoint"/>
                    </mxGeometry>
                </mxCell>
                <mxCell id="50" style="edgeStyle=orthogonalEdgeStyle;html=1;exitX=0.5;exitY=0;exitDx=0;exitDy=0;fontSize=11;entryX=0;entryY=0.5;entryDx=0;entryDy=0;" parent="1" source="40" target="59" edge="1">
                    <mxGeometry relative="1" as="geometry">
                        <mxPoint x="747.2" y="440" as="targetPoint"/>
                    </mxGeometry>
                </mxCell>
                <mxCell id="40" value="?" style="rhombus;whiteSpace=wrap;html=1;fontSize=11;" parent="1" vertex="1">
                    <mxGeometry x="645" y="459.75" width="50" height="50" as="geometry"/>
                </mxCell>
                <mxCell id="42" value="" style="shape=image;verticalLabelPosition=bottom;labelBackgroundColor=default;verticalAlign=top;aspect=fixed;imageAspect=0;image=https://cdn.jsdelivr.net/gh/TOMsworkspace/TOMsworkspace.github.io/2021/05/24/CMAKE%E5%85%A5%E9%97%A8/CMake-Logo.png;" parent="1" vertex="1">
                    <mxGeometry x="700" y="509.75" width="94.4" height="30.5" as="geometry"/>
                </mxCell>
                <mxCell id="49" value="&lt;p&gt;&lt;b&gt;build.rs&lt;br&gt;&lt;/b&gt;&lt;/p&gt;&lt;p style=&quot;text-align: left; font-size: 11px;&quot;&gt;&lt;i style=&quot;&quot;&gt;&lt;font style=&quot;font-size: 11px;&quot;&gt;&amp;nbsp;fn main() {&lt;br&gt;&lt;/font&gt;&lt;/i&gt;&lt;i&gt;&lt;font style=&quot;font-size: 11px;&quot;&gt;&amp;nbsp; &amp;nbsp; &lt;/font&gt;&lt;/i&gt;&lt;i style=&quot;background-color: initial; font-family: Helvetica; white-space: normal;&quot;&gt;cxx_build::bridge(&quot;src/file.rs&quot;)&lt;br&gt;&amp;nbsp; &amp;nbsp; .file(...)&lt;br&gt;&lt;/i&gt;&lt;i style=&quot;background-color: initial;&quot;&gt;&amp;nbsp; &amp;nbsp; &amp;nbsp;.src(...)&lt;br&gt;}&lt;/i&gt;&lt;/p&gt;" style="shape=note;html=1;backgroundOutline=1;darkOpacity=0.05;size=20;verticalAlign=top;whiteSpace=wrap;" parent="1" vertex="1">
                    <mxGeometry x="782.65" y="355" width="160" height="115" as="geometry"/>
                </mxCell>
                <mxCell id="55" value="&lt;p style=&quot;&quot;&gt;&lt;b&gt;&amp;nbsp; &amp;nbsp; &amp;nbsp; &amp;nbsp; &amp;nbsp; &amp;nbsp; &amp;nbsp; src/file.rs&lt;br&gt;&lt;/b&gt;&lt;/p&gt;&lt;div style=&quot;&quot;&gt;&lt;br&gt;&lt;/div&gt;&lt;i style=&quot;background-color: initial; border-color: var(--border-color); font-size: 11px;&quot;&gt;&lt;div style=&quot;&quot;&gt;&lt;i style=&quot;background-color: initial; border-color: var(--border-color);&quot;&gt;#[cxx::bridge]&lt;/i&gt;&lt;/div&gt;&lt;/i&gt;&lt;i style=&quot;background-color: initial; border-color: var(--border-color);&quot;&gt;&lt;div style=&quot;&quot;&gt;&lt;i style=&quot;background-color: initial; border-color: var(--border-color);&quot;&gt;mod ffi {&lt;/i&gt;&lt;/div&gt;&lt;/i&gt;&lt;blockquote style=&quot;margin: 0 0 0 40px; border: none; padding: 0px;&quot;&gt;&lt;/blockquote&gt;&lt;i style=&quot;background-color: initial; border-color: var(--border-color);&quot;&gt;&lt;div style=&quot;&quot;&gt;...&lt;/div&gt;&lt;/i&gt;&lt;div style=&quot;border-color: var(--border-color);&quot;&gt;&lt;i style=&quot;border-color: var(--border-color); background-color: initial;&quot;&gt;&lt;div style=&quot;&quot;&gt;&lt;i style=&quot;background-color: initial; border-color: var(--border-color);&quot;&gt;&amp;nbsp;}&lt;/i&gt;&lt;/div&gt;&lt;/i&gt;&lt;/div&gt;&lt;p style=&quot;font-size: 11px;&quot;&gt;&lt;i style=&quot;border-color: var(--border-color); background-color: initial;&quot;&gt;&lt;/i&gt;&lt;i style=&quot;border-color: var(--border-color); background-color: initial;&quot;&gt;&lt;/i&gt;&lt;/p&gt;" style="shape=note;html=1;backgroundOutline=1;darkOpacity=0.05;size=20;verticalAlign=top;whiteSpace=wrap;align=left;" parent="1" vertex="1">
                    <mxGeometry x="60" y="355" width="160" height="130" as="geometry"/>
                </mxCell>
                <mxCell id="58" value="" style="endArrow=none;html=1;fontSize=11;entryX=0;entryY=0.5;entryDx=0;entryDy=0;entryPerimeter=0;edgeStyle=orthogonalEdgeStyle;" parent="1" target="26" edge="1">
                    <mxGeometry width="50" height="50" relative="1" as="geometry">
                        <mxPoint x="350" y="400" as="sourcePoint"/>
                        <mxPoint x="385" y="460" as="targetPoint"/>
                        <Array as="points"/>
                    </mxGeometry>
                </mxCell>
                <mxCell id="26" value="2" style="ellipse;whiteSpace=wrap;html=1;aspect=fixed;fontSize=11;" parent="1" vertex="1">
                    <mxGeometry x="340" y="390" width="20" height="20" as="geometry"/>
                </mxCell>
                <mxCell id="60" style="edgeStyle=none;html=1;exitX=1;exitY=0.5;exitDx=0;exitDy=0;entryX=0;entryY=0.5;entryDx=0;entryDy=0;entryPerimeter=0;" edge="1" parent="1" source="59" target="49">
                    <mxGeometry relative="1" as="geometry"/>
                </mxCell>
                <mxCell id="59" value="" style="shape=image;verticalLabelPosition=bottom;labelBackgroundColor=default;verticalAlign=top;aspect=fixed;imageAspect=0;image=https://www.vhv.rs/dpng/d/415-4150318_rust-programming-language-logo-hd-png-download.png;" vertex="1" parent="1">
                    <mxGeometry x="680" y="390.38" width="42.65" height="44.62" as="geometry"/>
                </mxCell>
            </root>
        </mxGraphModel>
    </diagram>
</mxfile>